<svg width="24" height="24" viewBox="0 0 24 24" fill="none" xmlns="http://www.w3.org/2000/svg">
<g clip-path="url(#clip0_3_2463)">
<path d="M13.9413 18.228H15.3353V20.319H13.9413V18.228ZM18.76 18.228H20.154V20.319H18.76V18.228ZM17.5907 10.812V8.722H15.6587V9.74L16.3793 10.813L17.5907 10.812Z" fill="white"/>
<path d="M22.368 22.112V17.703H22.8113L23.2233 17.092L18.342 9.77H17.736V11.039H16.316L15.47 9.77H13.126L8.24999 17.084L8.66199 17.702H9.31465V22.111H8.04065C6.13532 19.377 5.62865 13.176 5.80665 8.563L5.83799 8.469H5.85332C6.68665 8.469 7.42532 9.075 7.88532 10.009L7.88999 10.019C8.23665 10.722 8.44532 11.607 8.44532 12.564C8.44532 13.224 8.34665 13.849 8.16932 14.408L8.17665 14.382C8.54871 14.2391 8.89457 13.9725 9.18865 13.602L9.18466 13.607C9.49085 13.2072 9.73626 12.7135 9.90429 12.1592C10.0723 11.6049 10.1591 11.0029 10.1587 10.394C10.1587 9.439 9.94932 8.558 9.59599 7.848L9.60132 7.859C9.29816 7.22485 8.86941 6.75023 8.37605 6.50265C7.88269 6.25508 7.34985 6.24715 6.85332 6.48L6.87065 6.473C7.04732 6.308 7.25065 6.162 7.46465 6.051L7.48599 6.041C7.77684 5.87986 8.0846 5.79823 8.39465 5.8C9.11665 5.8 9.77065 6.233 10.2487 6.934L10.248 6.933C10.3188 6.37212 10.2975 5.79379 10.186 5.248L10.1907 5.273C10.0801 4.78662 9.90472 4.33908 9.67516 3.95765C9.44559 3.57622 9.16667 3.26888 8.85537 3.05435C8.54407 2.83982 8.20692 2.7226 7.86444 2.70982C7.52197 2.69703 7.18135 2.78896 6.86332 2.98L6.87999 2.971C6.71912 3.05418 6.56268 3.15547 6.41199 3.274L6.43132 3.26C6.38593 2.94726 6.31867 2.64258 6.23065 2.351L6.23865 2.38C5.65199 0.407003 4.30665 -0.524997 3.23132 0.290003C2.94092 0.512695 2.6914 0.838905 2.50466 1.24L2.50066 1.25C2.87912 1.30571 3.24369 1.4932 3.56533 1.79753C3.88697 2.10187 4.1568 2.51465 4.35332 3.003L4.35932 3.019C4.10986 2.83167 3.84583 2.6916 3.57332 2.602L3.55066 2.596C1.89732 2.063 0.323989 3.41 0.0419886 5.611C-0.0333602 6.21479 -0.00840289 6.83712 0.114655 7.423L0.109989 7.397C0.479693 6.76743 0.95818 6.30332 1.49263 6.05592C2.02709 5.80852 2.59672 5.78744 3.13866 5.995L3.11732 5.988C3.38999 6.074 3.63132 6.198 3.85732 6.361L3.83799 6.348C3.29711 6.23992 2.74703 6.3763 2.2581 6.7397C1.76918 7.1031 1.36363 7.677 1.09332 8.388L1.08599 8.408C0.803767 9.12115 0.655631 9.93567 0.657322 10.765C0.657322 12.333 1.17532 13.719 1.96932 14.559L1.97932 14.569C2.32098 14.9131 2.71079 15.1348 3.11865 15.217L3.13265 15.219C2.83852 14.488 2.68379 13.6499 2.68532 12.796C2.68532 11.923 2.84332 11.105 3.11932 10.404L3.11132 10.426C3.31636 9.89064 3.5975 9.4296 3.93475 9.07564C4.27201 8.72168 4.6571 8.48349 5.06265 8.378L5.07932 8.374C4.13465 14.827 3.87332 19.323 4.65266 22.11H2.38199V23.99H23.814V22.11H22.368V22.112ZM17.068 17.805H21.8453V22.112H17.068V17.805ZM9.82732 16.951L13.1273 12.001L16.4273 16.951V22.112H12.804V18.228H10.9713V22.112H9.82332V16.951H9.82732Z" fill="white"/>
</g>
<defs>
<clipPath id="clip0_3_2463">
<rect width="24" height="24" fill="white"/>
</clipPath>
</defs>
</svg>
