<svg width="16" height="16" viewBox="0 0 16 16" fill="none" xmlns="http://www.w3.org/2000/svg">
<path d="M14.4033 1.03967C14.5402 1.06903 14.6657 1.13798 14.7646 1.23694C14.8636 1.3363 14.932 1.46208 14.9609 1.59924C14.9899 1.73646 14.9781 1.8795 14.9277 2.01038V2.01135L10.1963 14.5084C10.1406 14.647 10.0448 14.7658 9.9209 14.8492C9.79663 14.9328 9.64973 14.977 9.5 14.9762H9.46973C9.17418 14.9629 8.92916 14.7654 8.83203 14.484H8.83105C8.82906 14.4786 8.8279 14.4732 8.82617 14.4674L8.8252 14.4655L6.99219 10.1715C6.96877 10.0926 6.96681 10.0086 6.98535 9.92834C7.00415 9.84728 7.04393 9.77251 7.10059 9.71155L7.09961 9.71057L13.5166 2.82874C13.5392 2.80609 13.5571 2.77919 13.5693 2.74963C13.5816 2.71999 13.5879 2.68797 13.5879 2.65588C13.5879 2.62402 13.5815 2.59257 13.5693 2.56311C13.5571 2.53346 13.5393 2.50573 13.5166 2.48303C13.494 2.46044 13.467 2.44257 13.4375 2.4303C13.4079 2.41804 13.3758 2.41177 13.3438 2.41174C13.3117 2.41174 13.2797 2.41802 13.25 2.4303C13.2353 2.4364 13.2212 2.44396 13.208 2.45276L13.1709 2.48303L6.28516 8.89905C6.2242 8.95569 6.14941 8.99548 6.06836 9.01428C6.00741 9.02836 5.94413 9.0303 5.88281 9.02014L5.82227 9.00647L1.53418 7.17444H1.53223L1.51953 7.17053C1.37766 7.12306 1.25378 7.03218 1.16504 6.91174C1.07651 6.79147 1.02683 6.64698 1.02344 6.49768C1.02013 6.34821 1.06326 6.20098 1.14648 6.07678C1.22859 5.95435 1.34639 5.8604 1.4834 5.80627L1.49121 5.80334L13.9922 1.0719C14.1231 1.02211 14.2664 1.01035 14.4033 1.03967Z" fill="black" stroke="#112211" stroke-width="0.046875"/>
</svg>
